<svg width="426" height="298" viewBox="0 0 426 298" fill="none" xmlns="http://www.w3.org/2000/svg">
<mask id="mask0_9165_2359" style="mask-type:alpha" maskUnits="userSpaceOnUse" x="0" y="0" width="426" height="298">
<rect width="426" height="298" fill="#D9D9D9"/>
</mask>
<g mask="url(#mask0_9165_2359)">
<path d="M370.001 158.906C370.001 71.9214 299.486 1.40625 212.501 1.40625C125.516 1.40625 55.001 71.9214 55.001 158.906" stroke="#444444" stroke-opacity="0.4"/>
<path opacity="0.8" d="M350 158.407C350 82.1915 288.215 20.4067 212 20.4067C135.785 20.4067 74 82.1915 74 158.407" stroke="#444444"/>
<circle cx="212.499" cy="158.904" r="118" stroke="#444444"/>
<circle cx="212.501" cy="158.906" r="86" stroke="#444444"/>
<path d="M0 60.4043C0 49.3586 8.95431 40.4043 20 40.4043H406C417.046 40.4043 426 49.3586 426 60.4043V350.079H0V60.4043Z" fill="#252525"/>
<path fill-rule="evenodd" clip-rule="evenodd" d="M406 42.4043H20C10.0589 42.4043 2 50.4632 2 60.4043V319.148H424V60.4043C424 50.4632 415.941 42.4043 406 42.4043ZM20 40.4043C8.95431 40.4043 0 49.3586 0 60.4043V321.148H426V60.4043C426 49.3586 417.046 40.4043 406 40.4043H20Z" fill="url(#paint0_linear_9165_2359)"/>
<path d="M0 60.4043C0 49.3586 8.95431 40.4043 20 40.4043H406C417.046 40.4043 426 49.3586 426 60.4043V67.4043H0V60.4043Z" fill="white" fill-opacity="0.05"/>
<g filter="url(#filter0_d_9165_2359)">
<rect x="22.4951" y="100.405" width="225.068" height="173.129" rx="8" fill="#393939"/>
</g>
<path d="M30.4951 100.5H239.563C243.705 100.5 247.063 103.858 247.063 108V148.965H22.9951V108C22.9951 103.858 26.353 100.5 30.4951 100.5Z" fill="white" fill-opacity="0.05" stroke="url(#paint1_linear_9165_2359)"/>
<path d="M40.0392 128.46H44.3792V130H38.4292V120.2H44.3092V121.74H40.0392V124.288H43.9592V125.814H40.0392V128.46ZM49.437 122.818C50.2397 122.818 50.8884 123.075 51.383 123.588C51.8777 124.101 52.125 124.806 52.125 125.702V130H50.613V125.856C50.613 125.333 50.473 124.932 50.193 124.652C49.913 124.372 49.5304 124.232 49.045 124.232C48.513 124.232 48.0837 124.4 47.757 124.736C47.4304 125.063 47.267 125.567 47.267 126.248V130H45.755V123H47.267V123.896C47.7244 123.177 48.4477 122.818 49.437 122.818ZM59.2971 120.2H60.8091V130H59.2971V128.992C58.7278 129.785 57.9111 130.182 56.8471 130.182C55.8858 130.182 55.0644 129.827 54.3831 129.118C53.7018 128.399 53.3611 127.527 53.3611 126.5C53.3611 125.464 53.7018 124.591 54.3831 123.882C55.0644 123.173 55.8858 122.818 56.8471 122.818C57.9111 122.818 58.7278 123.21 59.2971 123.994V120.2ZM55.5031 128.11C55.9231 128.53 56.4504 128.74 57.0851 128.74C57.7198 128.74 58.2471 128.53 58.6671 128.11C59.0871 127.681 59.2971 127.144 59.2971 126.5C59.2971 125.856 59.0871 125.324 58.6671 124.904C58.2471 124.475 57.7198 124.26 57.0851 124.26C56.4504 124.26 55.9231 124.475 55.5031 124.904C55.0831 125.324 54.8731 125.856 54.8731 126.5C54.8731 127.144 55.0831 127.681 55.5031 128.11ZM62.6695 126.472V125.016H67.8495V126.472H62.6695ZM73.4775 124.456H71.7415V127.816C71.7415 128.105 71.8068 128.315 71.9375 128.446C72.0681 128.567 72.2595 128.637 72.5115 128.656C72.7728 128.665 73.0948 128.661 73.4775 128.642V130C72.3201 130.14 71.4895 130.042 70.9855 129.706C70.4815 129.361 70.2295 128.731 70.2295 127.816V124.456H68.9415V123H70.2295V121.488L71.7415 121.04V123H73.4775V124.456ZM77.8657 130.182C76.839 130.182 75.9664 129.827 75.2477 129.118C74.529 128.409 74.1697 127.536 74.1697 126.5C74.1697 125.464 74.529 124.591 75.2477 123.882C75.9664 123.173 76.839 122.818 77.8657 122.818C78.9017 122.818 79.7744 123.173 80.4837 123.882C81.2024 124.591 81.5617 125.464 81.5617 126.5C81.5617 127.536 81.2024 128.409 80.4837 129.118C79.7744 129.827 78.9017 130.182 77.8657 130.182ZM76.3117 128.082C76.7317 128.502 77.2497 128.712 77.8657 128.712C78.4817 128.712 78.9997 128.502 79.4197 128.082C79.8397 127.662 80.0497 127.135 80.0497 126.5C80.0497 125.865 79.8397 125.338 79.4197 124.918C78.9997 124.498 78.4817 124.288 77.8657 124.288C77.2497 124.288 76.7317 124.498 76.3117 124.918C75.8917 125.338 75.6817 125.865 75.6817 126.5C75.6817 127.135 75.8917 127.662 76.3117 128.082ZM83.0269 126.472V125.016H88.2069V126.472H83.0269ZM91.2556 127.144C91.3676 127.676 91.6243 128.087 92.0256 128.376C92.4269 128.656 92.9169 128.796 93.4956 128.796C94.2983 128.796 94.9003 128.507 95.3016 127.928L96.5476 128.656C95.8569 129.673 94.8349 130.182 93.4816 130.182C92.3429 130.182 91.4236 129.837 90.7236 129.146C90.0236 128.446 89.6736 127.564 89.6736 126.5C89.6736 125.455 90.0189 124.582 90.7096 123.882C91.4003 123.173 92.2869 122.818 93.3696 122.818C94.3963 122.818 95.2363 123.177 95.8896 123.896C96.5523 124.615 96.8836 125.487 96.8836 126.514C96.8836 126.673 96.8649 126.883 96.8276 127.144H91.2556ZM91.2416 125.912H95.3576C95.2549 125.343 95.0169 124.913 94.6436 124.624C94.2796 124.335 93.8503 124.19 93.3556 124.19C92.7956 124.19 92.3289 124.344 91.9556 124.652C91.5823 124.96 91.3443 125.38 91.2416 125.912ZM101.896 122.818C102.699 122.818 103.347 123.075 103.842 123.588C104.337 124.101 104.584 124.806 104.584 125.702V130H103.072V125.856C103.072 125.333 102.932 124.932 102.652 124.652C102.372 124.372 101.989 124.232 101.504 124.232C100.972 124.232 100.543 124.4 100.216 124.736C99.8894 125.063 99.726 125.567 99.726 126.248V130H98.214V123H99.726V123.896C100.183 123.177 100.907 122.818 101.896 122.818ZM111.756 120.2H113.268V130H111.756V128.992C111.187 129.785 110.37 130.182 109.306 130.182C108.345 130.182 107.523 129.827 106.842 129.118C106.161 128.399 105.82 127.527 105.82 126.5C105.82 125.464 106.161 124.591 106.842 123.882C107.523 123.173 108.345 122.818 109.306 122.818C110.37 122.818 111.187 123.21 111.756 123.994V120.2ZM107.962 128.11C108.382 128.53 108.909 128.74 109.544 128.74C110.179 128.74 110.706 128.53 111.126 128.11C111.546 127.681 111.756 127.144 111.756 126.5C111.756 125.856 111.546 125.324 111.126 124.904C110.706 124.475 110.179 124.26 109.544 124.26C108.909 124.26 108.382 124.475 107.962 124.904C107.542 125.324 107.332 125.856 107.332 126.5C107.332 127.144 107.542 127.681 107.962 128.11ZM124.074 120.2H125.586V130H124.074V128.992C123.505 129.785 122.688 130.182 121.624 130.182C120.663 130.182 119.842 129.827 119.16 129.118C118.479 128.399 118.138 127.527 118.138 126.5C118.138 125.464 118.479 124.591 119.16 123.882C119.842 123.173 120.663 122.818 121.624 122.818C122.688 122.818 123.505 123.21 124.074 123.994V120.2ZM120.28 128.11C120.7 128.53 121.228 128.74 121.862 128.74C122.497 128.74 123.024 128.53 123.444 128.11C123.864 127.681 124.074 127.144 124.074 126.5C124.074 125.856 123.864 125.324 123.444 124.904C123.024 124.475 122.497 124.26 121.862 124.26C121.228 124.26 120.7 124.475 120.28 124.904C119.86 125.324 119.65 125.856 119.65 126.5C119.65 127.144 119.86 127.681 120.28 128.11ZM128.539 127.144C128.651 127.676 128.907 128.087 129.309 128.376C129.71 128.656 130.2 128.796 130.779 128.796C131.581 128.796 132.183 128.507 132.585 127.928L133.831 128.656C133.14 129.673 132.118 130.182 130.765 130.182C129.626 130.182 128.707 129.837 128.007 129.146C127.307 128.446 126.957 127.564 126.957 126.5C126.957 125.455 127.302 124.582 127.993 123.882C128.683 123.173 129.57 122.818 130.653 122.818C131.679 122.818 132.519 123.177 133.173 123.896C133.835 124.615 134.167 125.487 134.167 126.514C134.167 126.673 134.148 126.883 134.111 127.144H128.539ZM128.525 125.912H132.641C132.538 125.343 132.3 124.913 131.927 124.624C131.563 124.335 131.133 124.19 130.639 124.19C130.079 124.19 129.612 124.344 129.239 124.652C128.865 124.96 128.627 125.38 128.525 125.912ZM139.97 123H141.622L138.892 130H137.142L134.412 123H136.064L138.024 128.32L139.97 123ZM143.496 127.144C143.608 127.676 143.864 128.087 144.266 128.376C144.667 128.656 145.157 128.796 145.736 128.796C146.538 128.796 147.14 128.507 147.542 127.928L148.788 128.656C148.097 129.673 147.075 130.182 145.722 130.182C144.583 130.182 143.664 129.837 142.964 129.146C142.264 128.446 141.914 127.564 141.914 126.5C141.914 125.455 142.259 124.582 142.95 123.882C143.64 123.173 144.527 122.818 145.61 122.818C146.636 122.818 147.476 123.177 148.13 123.896C148.792 124.615 149.124 125.487 149.124 126.514C149.124 126.673 149.105 126.883 149.068 127.144H143.496ZM143.482 125.912H147.598C147.495 125.343 147.257 124.913 146.884 124.624C146.52 124.335 146.09 124.19 145.596 124.19C145.036 124.19 144.569 124.344 144.196 124.652C143.822 124.96 143.584 125.38 143.482 125.912ZM150.454 130V119.78H151.966V130H150.454ZM157.026 130.182C155.999 130.182 155.127 129.827 154.408 129.118C153.689 128.409 153.33 127.536 153.33 126.5C153.33 125.464 153.689 124.591 154.408 123.882C155.127 123.173 155.999 122.818 157.026 122.818C158.062 122.818 158.935 123.173 159.644 123.882C160.363 124.591 160.722 125.464 160.722 126.5C160.722 127.536 160.363 128.409 159.644 129.118C158.935 129.827 158.062 130.182 157.026 130.182ZM155.472 128.082C155.892 128.502 156.41 128.712 157.026 128.712C157.642 128.712 158.16 128.502 158.58 128.082C159 127.662 159.21 127.135 159.21 126.5C159.21 125.865 159 125.338 158.58 124.918C158.16 124.498 157.642 124.288 157.026 124.288C156.41 124.288 155.892 124.498 155.472 124.918C155.052 125.338 154.842 125.865 154.842 126.5C154.842 127.135 155.052 127.662 155.472 128.082ZM166.051 122.818C167.012 122.818 167.834 123.177 168.515 123.896C169.196 124.605 169.537 125.473 169.537 126.5C169.537 127.536 169.196 128.409 168.515 129.118C167.834 129.827 167.012 130.182 166.051 130.182C164.987 130.182 164.17 129.79 163.601 129.006V132.8H162.089V123H163.601V124.008C164.17 123.215 164.987 122.818 166.051 122.818ZM164.231 128.11C164.651 128.53 165.178 128.74 165.813 128.74C166.448 128.74 166.975 128.53 167.395 128.11C167.815 127.681 168.025 127.144 168.025 126.5C168.025 125.856 167.815 125.324 167.395 124.904C166.975 124.475 166.448 124.26 165.813 124.26C165.178 124.26 164.651 124.475 164.231 124.904C163.811 125.324 163.601 125.856 163.601 126.5C163.601 127.144 163.811 127.681 164.231 128.11ZM178.551 122.818C179.345 122.818 179.984 123.075 180.469 123.588C180.955 124.101 181.197 124.792 181.197 125.66V130H179.685V125.758C179.685 125.273 179.564 124.899 179.321 124.638C179.079 124.367 178.747 124.232 178.327 124.232C177.861 124.232 177.487 124.386 177.207 124.694C176.937 125.002 176.801 125.464 176.801 126.08V130H175.289V125.758C175.289 125.273 175.173 124.899 174.939 124.638C174.715 124.367 174.393 124.232 173.973 124.232C173.516 124.232 173.143 124.391 172.853 124.708C172.564 125.016 172.419 125.473 172.419 126.08V130H170.907V123H172.419V123.84C172.867 123.159 173.535 122.818 174.421 122.818C175.317 122.818 175.98 123.187 176.409 123.924C176.876 123.187 177.59 122.818 178.551 122.818ZM184.006 127.144C184.118 127.676 184.374 128.087 184.776 128.376C185.177 128.656 185.667 128.796 186.246 128.796C187.048 128.796 187.65 128.507 188.052 127.928L189.298 128.656C188.607 129.673 187.585 130.182 186.232 130.182C185.093 130.182 184.174 129.837 183.474 129.146C182.774 128.446 182.424 127.564 182.424 126.5C182.424 125.455 182.769 124.582 183.46 123.882C184.15 123.173 185.037 122.818 186.12 122.818C187.146 122.818 187.986 123.177 188.64 123.896C189.302 124.615 189.634 125.487 189.634 126.514C189.634 126.673 189.615 126.883 189.578 127.144H184.006ZM183.992 125.912H188.108C188.005 125.343 187.767 124.913 187.394 124.624C187.03 124.335 186.6 124.19 186.106 124.19C185.546 124.19 185.079 124.344 184.706 124.652C184.332 124.96 184.094 125.38 183.992 125.912ZM194.646 122.818C195.449 122.818 196.097 123.075 196.592 123.588C197.087 124.101 197.334 124.806 197.334 125.702V130H195.822V125.856C195.822 125.333 195.682 124.932 195.402 124.652C195.122 124.372 194.739 124.232 194.254 124.232C193.722 124.232 193.293 124.4 192.966 124.736C192.639 125.063 192.476 125.567 192.476 126.248V130H190.964V123H192.476V123.896C192.933 123.177 193.657 122.818 194.646 122.818ZM202.868 124.456H201.132V127.816C201.132 128.105 201.197 128.315 201.328 128.446C201.459 128.567 201.65 128.637 201.902 128.656C202.163 128.665 202.485 128.661 202.868 128.642V130C201.711 130.14 200.88 130.042 200.376 129.706C199.872 129.361 199.62 128.731 199.62 127.816V124.456H198.332V123H199.62V121.488L201.132 121.04V123H202.868V124.456Z" fill="white"/>
<path d="M39.8086 170.895L43.5185 174.605L50.9383 167.185" stroke="#3DD5A2" stroke-width="2"/>
<path d="M39.8086 196.866L43.5185 200.576L50.9383 193.156" stroke="#3DD5A2" stroke-width="2"/>
<path d="M39.8086 222.833L43.5185 226.543L50.9383 219.124" stroke="#3DD5A2" stroke-width="2"/>
<path d="M39.8086 248.802L43.5185 252.512L50.9383 245.092" stroke="#3DD5A2" stroke-width="2"/>
<rect x="59.5957" y="169.657" width="76.6715" height="4.94655" rx="2.47327" fill="#C2C2C2"/>
<rect x="59.5957" y="195.627" width="110.061" height="4.94655" rx="2.47327" fill="#C2C2C2"/>
<rect x="59.5957" y="221.597" width="89.0378" height="4.94655" rx="2.47327" fill="#C2C2C2"/>
<rect x="59.5957" y="247.566" width="76.6715" height="4.94655" rx="2.47327" fill="#C2C2C2"/>
<rect x="169.999" y="80.4062" width="87" height="7" rx="3.5" fill="#393939"/>
<g filter="url(#filter1_d_9165_2359)">
<rect x="178.437" y="146.613" width="225.068" height="173.129" rx="8" fill="#393939"/>
</g>
<path d="M186.437 147.5H395.504C399.646 147.5 403.004 150.858 403.004 155V195.965H178.937V155C178.937 150.858 182.294 147.5 186.437 147.5Z" fill="white" fill-opacity="0.05" stroke="url(#paint2_linear_9165_2359)"/>
<path d="M197.768 166.2C199.112 166.2 200.228 166.671 201.114 167.614C202.01 168.557 202.458 169.719 202.458 171.1C202.458 172.472 202.01 173.634 201.114 174.586C200.228 175.529 199.112 176 197.768 176H193.918V166.2H197.768ZM197.768 174.46C198.692 174.46 199.444 174.143 200.022 173.508C200.61 172.873 200.904 172.071 200.904 171.1C200.904 170.12 200.61 169.317 200.022 168.692C199.444 168.057 198.692 167.74 197.768 167.74H195.528V174.46H197.768ZM205.018 173.144C205.13 173.676 205.387 174.087 205.788 174.376C206.19 174.656 206.68 174.796 207.258 174.796C208.061 174.796 208.663 174.507 209.064 173.928L210.31 174.656C209.62 175.673 208.598 176.182 207.244 176.182C206.106 176.182 205.186 175.837 204.486 175.146C203.786 174.446 203.436 173.564 203.436 172.5C203.436 171.455 203.782 170.582 204.472 169.882C205.163 169.173 206.05 168.818 207.132 168.818C208.159 168.818 208.999 169.177 209.652 169.896C210.315 170.615 210.646 171.487 210.646 172.514C210.646 172.673 210.628 172.883 210.59 173.144H205.018ZM205.004 171.912H209.12C209.018 171.343 208.78 170.913 208.406 170.624C208.042 170.335 207.613 170.19 207.118 170.19C206.558 170.19 206.092 170.344 205.718 170.652C205.345 170.96 205.107 171.38 205.004 171.912ZM217.48 166.2H218.992V176H217.48V174.992C216.91 175.785 216.094 176.182 215.03 176.182C214.068 176.182 213.247 175.827 212.566 175.118C211.884 174.399 211.544 173.527 211.544 172.5C211.544 171.464 211.884 170.591 212.566 169.882C213.247 169.173 214.068 168.818 215.03 168.818C216.094 168.818 216.91 169.21 217.48 169.994V166.2ZM213.686 174.11C214.106 174.53 214.633 174.74 215.268 174.74C215.902 174.74 216.43 174.53 216.85 174.11C217.27 173.681 217.48 173.144 217.48 172.5C217.48 171.856 217.27 171.324 216.85 170.904C216.43 170.475 215.902 170.26 215.268 170.26C214.633 170.26 214.106 170.475 213.686 170.904C213.266 171.324 213.056 171.856 213.056 172.5C213.056 173.144 213.266 173.681 213.686 174.11ZM222.182 167.67C221.995 167.857 221.771 167.95 221.51 167.95C221.249 167.95 221.02 167.857 220.824 167.67C220.637 167.474 220.544 167.245 220.544 166.984C220.544 166.723 220.637 166.499 220.824 166.312C221.011 166.116 221.239 166.018 221.51 166.018C221.781 166.018 222.009 166.116 222.196 166.312C222.383 166.499 222.476 166.723 222.476 166.984C222.476 167.245 222.378 167.474 222.182 167.67ZM220.754 176V169H222.266V176H220.754ZM227.326 176.182C226.271 176.182 225.389 175.827 224.68 175.118C223.98 174.409 223.63 173.536 223.63 172.5C223.63 171.455 223.98 170.582 224.68 169.882C225.389 169.173 226.271 168.818 227.326 168.818C228.007 168.818 228.628 168.981 229.188 169.308C229.748 169.635 230.168 170.073 230.448 170.624L229.146 171.38C228.987 171.044 228.744 170.783 228.418 170.596C228.1 170.4 227.732 170.302 227.312 170.302C226.696 170.302 226.178 170.512 225.758 170.932C225.347 171.352 225.142 171.875 225.142 172.5C225.142 173.125 225.347 173.648 225.758 174.068C226.178 174.488 226.696 174.698 227.312 174.698C227.722 174.698 228.091 174.6 228.418 174.404C228.754 174.208 229.006 173.947 229.174 173.62L230.476 174.362C230.177 174.922 229.748 175.365 229.188 175.692C228.628 176.019 228.007 176.182 227.326 176.182ZM237.003 169H238.515V176H237.003V174.992C236.434 175.785 235.617 176.182 234.553 176.182C233.592 176.182 232.77 175.827 232.089 175.118C231.408 174.399 231.067 173.527 231.067 172.5C231.067 171.464 231.408 170.591 232.089 169.882C232.77 169.173 233.592 168.818 234.553 168.818C235.617 168.818 236.434 169.21 237.003 169.994V169ZM233.209 174.11C233.629 174.53 234.156 174.74 234.791 174.74C235.426 174.74 235.953 174.53 236.373 174.11C236.793 173.681 237.003 173.144 237.003 172.5C237.003 171.856 236.793 171.324 236.373 170.904C235.953 170.475 235.426 170.26 234.791 170.26C234.156 170.26 233.629 170.475 233.209 170.904C232.789 171.324 232.579 171.856 232.579 172.5C232.579 173.144 232.789 173.681 233.209 174.11ZM244.184 170.456H242.448V173.816C242.448 174.105 242.513 174.315 242.644 174.446C242.774 174.567 242.966 174.637 243.218 174.656C243.479 174.665 243.801 174.661 244.184 174.642V176C243.026 176.14 242.196 176.042 241.692 175.706C241.188 175.361 240.936 174.731 240.936 173.816V170.456H239.648V169H240.936V167.488L242.448 167.04V169H244.184V170.456ZM246.458 173.144C246.57 173.676 246.826 174.087 247.228 174.376C247.629 174.656 248.119 174.796 248.698 174.796C249.5 174.796 250.102 174.507 250.504 173.928L251.75 174.656C251.059 175.673 250.037 176.182 248.684 176.182C247.545 176.182 246.626 175.837 245.926 175.146C245.226 174.446 244.876 173.564 244.876 172.5C244.876 171.455 245.221 170.582 245.912 169.882C246.602 169.173 247.489 168.818 248.572 168.818C249.598 168.818 250.438 169.177 251.092 169.896C251.754 170.615 252.086 171.487 252.086 172.514C252.086 172.673 252.067 172.883 252.03 173.144H246.458ZM246.444 171.912H250.56C250.457 171.343 250.219 170.913 249.846 170.624C249.482 170.335 249.052 170.19 248.558 170.19C247.998 170.19 247.531 170.344 247.158 170.652C246.784 170.96 246.546 171.38 246.444 171.912ZM258.919 166.2H260.431V176H258.919V174.992C258.35 175.785 257.533 176.182 256.469 176.182C255.508 176.182 254.686 175.827 254.005 175.118C253.324 174.399 252.983 173.527 252.983 172.5C252.983 171.464 253.324 170.591 254.005 169.882C254.686 169.173 255.508 168.818 256.469 168.818C257.533 168.818 258.35 169.21 258.919 169.994V166.2ZM255.125 174.11C255.545 174.53 256.072 174.74 256.707 174.74C257.342 174.74 257.869 174.53 258.289 174.11C258.709 173.681 258.919 173.144 258.919 172.5C258.919 171.856 258.709 171.324 258.289 170.904C257.869 170.475 257.342 170.26 256.707 170.26C256.072 170.26 255.545 170.475 255.125 170.904C254.705 171.324 254.495 171.856 254.495 172.5C254.495 173.144 254.705 173.681 255.125 174.11ZM271.238 166.2H272.75V176H271.238V174.992C270.668 175.785 269.852 176.182 268.788 176.182C267.826 176.182 267.005 175.827 266.324 175.118C265.642 174.399 265.302 173.527 265.302 172.5C265.302 171.464 265.642 170.591 266.324 169.882C267.005 169.173 267.826 168.818 268.788 168.818C269.852 168.818 270.668 169.21 271.238 169.994V166.2ZM267.444 174.11C267.864 174.53 268.391 174.74 269.026 174.74C269.66 174.74 270.188 174.53 270.608 174.11C271.028 173.681 271.238 173.144 271.238 172.5C271.238 171.856 271.028 171.324 270.608 170.904C270.188 170.475 269.66 170.26 269.026 170.26C268.391 170.26 267.864 170.475 267.444 170.904C267.024 171.324 266.814 171.856 266.814 172.5C266.814 173.144 267.024 173.681 267.444 174.11ZM275.702 173.144C275.814 173.676 276.071 174.087 276.472 174.376C276.873 174.656 277.363 174.796 277.942 174.796C278.745 174.796 279.347 174.507 279.748 173.928L280.994 174.656C280.303 175.673 279.281 176.182 277.928 176.182C276.789 176.182 275.87 175.837 275.17 175.146C274.47 174.446 274.12 173.564 274.12 172.5C274.12 171.455 274.465 170.582 275.156 169.882C275.847 169.173 276.733 168.818 277.816 168.818C278.843 168.818 279.683 169.177 280.336 169.896C280.999 170.615 281.33 171.487 281.33 172.514C281.33 172.673 281.311 172.883 281.274 173.144H275.702ZM275.688 171.912H279.804C279.701 171.343 279.463 170.913 279.09 170.624C278.726 170.335 278.297 170.19 277.802 170.19C277.242 170.19 276.775 170.344 276.402 170.652C276.029 170.96 275.791 171.38 275.688 171.912ZM287.133 169H288.785L286.055 176H284.305L281.575 169H283.227L285.187 174.32L287.133 169ZM290.659 173.144C290.771 173.676 291.028 174.087 291.429 174.376C291.83 174.656 292.32 174.796 292.899 174.796C293.702 174.796 294.304 174.507 294.705 173.928L295.951 174.656C295.26 175.673 294.238 176.182 292.885 176.182C291.746 176.182 290.827 175.837 290.127 175.146C289.427 174.446 289.077 173.564 289.077 172.5C289.077 171.455 289.422 170.582 290.113 169.882C290.804 169.173 291.69 168.818 292.773 168.818C293.8 168.818 294.64 169.177 295.293 169.896C295.956 170.615 296.287 171.487 296.287 172.514C296.287 172.673 296.268 172.883 296.231 173.144H290.659ZM290.645 171.912H294.761C294.658 171.343 294.42 170.913 294.047 170.624C293.683 170.335 293.254 170.19 292.759 170.19C292.199 170.19 291.732 170.344 291.359 170.652C290.986 170.96 290.748 171.38 290.645 171.912ZM297.617 176V165.78H299.129V176H297.617ZM304.189 176.182C303.162 176.182 302.29 175.827 301.571 175.118C300.852 174.409 300.493 173.536 300.493 172.5C300.493 171.464 300.852 170.591 301.571 169.882C302.29 169.173 303.162 168.818 304.189 168.818C305.225 168.818 306.098 169.173 306.807 169.882C307.526 170.591 307.885 171.464 307.885 172.5C307.885 173.536 307.526 174.409 306.807 175.118C306.098 175.827 305.225 176.182 304.189 176.182ZM302.635 174.082C303.055 174.502 303.573 174.712 304.189 174.712C304.805 174.712 305.323 174.502 305.743 174.082C306.163 173.662 306.373 173.135 306.373 172.5C306.373 171.865 306.163 171.338 305.743 170.918C305.323 170.498 304.805 170.288 304.189 170.288C303.573 170.288 303.055 170.498 302.635 170.918C302.215 171.338 302.005 171.865 302.005 172.5C302.005 173.135 302.215 173.662 302.635 174.082ZM313.214 168.818C314.175 168.818 314.997 169.177 315.678 169.896C316.359 170.605 316.7 171.473 316.7 172.5C316.7 173.536 316.359 174.409 315.678 175.118C314.997 175.827 314.175 176.182 313.214 176.182C312.15 176.182 311.333 175.79 310.764 175.006V178.8H309.252V169H310.764V170.008C311.333 169.215 312.15 168.818 313.214 168.818ZM311.394 174.11C311.814 174.53 312.341 174.74 312.976 174.74C313.611 174.74 314.138 174.53 314.558 174.11C314.978 173.681 315.188 173.144 315.188 172.5C315.188 171.856 314.978 171.324 314.558 170.904C314.138 170.475 313.611 170.26 312.976 170.26C312.341 170.26 311.814 170.475 311.394 170.904C310.974 171.324 310.764 171.856 310.764 172.5C310.764 173.144 310.974 173.681 311.394 174.11ZM319.26 173.144C319.372 173.676 319.629 174.087 320.03 174.376C320.432 174.656 320.922 174.796 321.5 174.796C322.303 174.796 322.905 174.507 323.306 173.928L324.552 174.656C323.862 175.673 322.84 176.182 321.486 176.182C320.348 176.182 319.428 175.837 318.728 175.146C318.028 174.446 317.678 173.564 317.678 172.5C317.678 171.455 318.024 170.582 318.714 169.882C319.405 169.173 320.292 168.818 321.374 168.818C322.401 168.818 323.241 169.177 323.894 169.896C324.557 170.615 324.888 171.487 324.888 172.514C324.888 172.673 324.87 172.883 324.832 173.144H319.26ZM319.246 171.912H323.362C323.26 171.343 323.022 170.913 322.648 170.624C322.284 170.335 321.855 170.19 321.36 170.19C320.8 170.19 320.334 170.344 319.96 170.652C319.587 170.96 319.349 171.38 319.246 171.912ZM327.731 170.176C328.114 169.308 328.832 168.874 329.887 168.874V170.512C329.308 170.475 328.804 170.615 328.375 170.932C327.946 171.24 327.731 171.753 327.731 172.472V176H326.219V169H327.731V170.176ZM332.116 170.932C332.116 171.165 332.242 171.352 332.494 171.492C332.755 171.623 333.068 171.739 333.432 171.842C333.805 171.935 334.179 172.047 334.552 172.178C334.925 172.309 335.238 172.533 335.49 172.85C335.751 173.158 335.882 173.55 335.882 174.026C335.882 174.698 335.621 175.225 335.098 175.608C334.585 175.991 333.936 176.182 333.152 176.182C332.461 176.182 331.869 176.037 331.374 175.748C330.879 175.459 330.52 175.057 330.296 174.544L331.598 173.788C331.841 174.46 332.359 174.796 333.152 174.796C333.945 174.796 334.342 174.535 334.342 174.012C334.342 173.788 334.211 173.606 333.95 173.466C333.698 173.326 333.385 173.209 333.012 173.116C332.648 173.013 332.279 172.897 331.906 172.766C331.533 172.635 331.215 172.421 330.954 172.122C330.702 171.814 330.576 171.427 330.576 170.96C330.576 170.316 330.819 169.798 331.304 169.406C331.799 169.014 332.41 168.818 333.138 168.818C333.717 168.818 334.23 168.949 334.678 169.21C335.135 169.462 335.485 169.817 335.728 170.274L334.454 170.988C334.211 170.456 333.773 170.19 333.138 170.19C332.849 170.19 332.606 170.255 332.41 170.386C332.214 170.507 332.116 170.689 332.116 170.932Z" fill="white"/>
<path d="M195.751 217.102L199.461 220.812L206.881 213.393" stroke="#3DD5A2" stroke-width="2"/>
<path d="M195.751 243.074L199.461 246.784L206.881 239.364" stroke="#3DD5A2" stroke-width="2"/>
<path d="M195.751 269.041L199.461 272.751L206.881 265.331" stroke="#3DD5A2" stroke-width="2"/>
<path d="M195.751 295.01L199.461 298.72L206.881 291.3" stroke="#3DD5A2" stroke-width="2"/>
<rect x="218.009" y="215.864" width="118.717" height="4.94655" rx="2.47327" fill="#C2C2C2"/>
<rect x="215.536" y="241.834" width="69.2516" height="4.94655" rx="2.47327" fill="#C2C2C2"/>
<rect x="215.536" y="267.804" width="53.1754" height="4.94655" rx="2.47327" fill="#C2C2C2"/>
<rect x="215.536" y="293.773" width="76.6715" height="4.94655" rx="2.47327" fill="#C2C2C2"/>
<path d="M370.117 146.613H388.667V188.658L379.392 183.987L370.117 188.658V146.613Z" fill="#3DD5A2"/>
<circle cx="27" cy="54.4058" r="2" fill="#7A7A7A"/>
<circle cx="35" cy="54.4058" r="2" fill="#7A7A7A"/>
<circle cx="43" cy="54.4058" r="2" fill="#7A7A7A"/>
<rect x="178.555" y="195.426" width="224.95" height="154.653" fill="url(#paint3_linear_9165_2359)"/>
<rect x="22.4951" y="150.436" width="156.059" height="195.426" fill="url(#paint4_linear_9165_2359)"/>
</g>
<defs>
<filter id="filter0_d_9165_2359" x="0.495117" y="82.4053" width="269.067" height="217.129" filterUnits="userSpaceOnUse" color-interpolation-filters="sRGB">
<feFlood flood-opacity="0" result="BackgroundImageFix"/>
<feColorMatrix in="SourceAlpha" type="matrix" values="0 0 0 0 0 0 0 0 0 0 0 0 0 0 0 0 0 0 127 0" result="hardAlpha"/>
<feOffset dy="4"/>
<feGaussianBlur stdDeviation="11"/>
<feComposite in2="hardAlpha" operator="out"/>
<feColorMatrix type="matrix" values="0 0 0 0 0 0 0 0 0 0 0 0 0 0 0 0 0 0 0.45 0"/>
<feBlend mode="normal" in2="BackgroundImageFix" result="effect1_dropShadow_9165_2359"/>
<feBlend mode="normal" in="SourceGraphic" in2="effect1_dropShadow_9165_2359" result="shape"/>
</filter>
<filter id="filter1_d_9165_2359" x="156.437" y="128.613" width="269.067" height="217.129" filterUnits="userSpaceOnUse" color-interpolation-filters="sRGB">
<feFlood flood-opacity="0" result="BackgroundImageFix"/>
<feColorMatrix in="SourceAlpha" type="matrix" values="0 0 0 0 0 0 0 0 0 0 0 0 0 0 0 0 0 0 127 0" result="hardAlpha"/>
<feOffset dy="4"/>
<feGaussianBlur stdDeviation="11"/>
<feComposite in2="hardAlpha" operator="out"/>
<feColorMatrix type="matrix" values="0 0 0 0 0 0 0 0 0 0 0 0 0 0 0 0 0 0 0.45 0"/>
<feBlend mode="normal" in2="BackgroundImageFix" result="effect1_dropShadow_9165_2359"/>
<feBlend mode="normal" in="SourceGraphic" in2="effect1_dropShadow_9165_2359" result="shape"/>
</filter>
<linearGradient id="paint0_linear_9165_2359" x1="213" y1="40.4043" x2="213" y2="256.304" gradientUnits="userSpaceOnUse">
<stop stop-color="#D6EA48"/>
<stop offset="1" stop-color="#D6EA48" stop-opacity="0"/>
</linearGradient>
<linearGradient id="paint1_linear_9165_2359" x1="156.052" y1="100" x2="156.052" y2="149.465" gradientUnits="userSpaceOnUse">
<stop stop-color="white" stop-opacity="0.58"/>
<stop offset="1" stop-color="white" stop-opacity="0"/>
</linearGradient>
<linearGradient id="paint2_linear_9165_2359" x1="311.993" y1="147" x2="311.993" y2="196.465" gradientUnits="userSpaceOnUse">
<stop stop-color="white" stop-opacity="0.58"/>
<stop offset="1" stop-color="white" stop-opacity="0"/>
</linearGradient>
<linearGradient id="paint3_linear_9165_2359" x1="291.03" y1="195.426" x2="291.03" y2="350.079" gradientUnits="userSpaceOnUse">
<stop stop-color="#252525" stop-opacity="0"/>
<stop offset="0.578125" stop-color="#252525"/>
</linearGradient>
<linearGradient id="paint4_linear_9165_2359" x1="100.525" y1="150.436" x2="100.525" y2="345.861" gradientUnits="userSpaceOnUse">
<stop stop-color="#252525" stop-opacity="0"/>
<stop offset="0.578125" stop-color="#252525"/>
</linearGradient>
</defs>
</svg>
